<svg width="40" height="51" viewBox="0 0 40 51" fill="none" xmlns="http://www.w3.org/2000/svg">
<g clip-path="url(#clip0_1651_967)">
<path d="M5.00461 20.0818C5.04222 16.5265 6.36677 13.1053 8.73301 10.4516C11.0992 7.79783 14.3469 6.09135 17.8746 5.64809C21.6823 5.17428 25.5261 6.1867 28.6064 8.47474C31.6867 10.7628 33.7663 14.1503 34.4126 17.9325C34.7615 20.0441 34.6384 22.2068 34.052 24.2652C33.4656 26.3236 32.4306 28.2265 31.0213 29.8373C30.1011 30.9505 29.1616 32.0509 28.2929 33.2028C27.5197 34.1837 27.0122 35.3472 26.8193 36.5812C26.8102 36.6869 26.7791 36.7896 26.7282 36.8827C26.6773 36.9759 26.6076 37.0574 26.5235 37.1221C26.4393 37.1869 26.3427 37.2334 26.2396 37.2588C26.1366 37.2842 26.0294 37.2879 25.9248 37.2697C25.8159 37.2525 25.7119 37.2128 25.6192 37.1531C25.5266 37.0934 25.4474 37.015 25.3869 36.9229C25.3263 36.8308 25.2856 36.7271 25.2674 36.6184C25.2493 36.5097 25.254 36.3984 25.2813 36.2916C25.4864 34.913 26.0377 33.609 26.8836 32.5014C27.7974 31.2659 28.8141 30.0818 29.7794 28.8913C32.9969 25.0303 33.9686 20.6417 32.2183 15.8991C31.4686 13.6519 30.1086 11.6577 28.2902 10.1394C26.4719 8.6211 24.267 7.63863 21.9222 7.30189C19.2582 6.84973 16.5195 7.22904 14.0787 8.38824C11.6378 9.54744 9.61321 11.4303 8.28016 13.7807C6.9471 16.1311 6.3703 18.8351 6.62818 21.5249C6.88606 24.2147 7.96611 26.7598 9.72147 28.8141C10.7575 30.0689 11.7871 31.3302 12.7459 32.6429C13.5708 33.7344 14.1085 35.0155 14.3096 36.3688C14.3319 36.473 14.3328 36.5806 14.3122 36.6851C14.2915 36.7896 14.2499 36.8889 14.1897 36.9768C14.1295 37.0647 14.052 37.1394 13.962 37.1964C13.872 37.2534 13.7713 37.2915 13.6661 37.3083C13.5665 37.3317 13.4631 37.3341 13.3625 37.3155C13.2619 37.2969 13.1663 37.2576 13.0816 37.2002C12.997 37.1428 12.9251 37.0684 12.8707 36.9818C12.8162 36.8952 12.7803 36.7982 12.7652 36.697C12.495 34.9338 11.5233 33.531 10.4679 32.1925C9.41259 30.854 8.37655 29.7343 7.46278 28.4087C5.79387 25.9579 4.93426 23.046 5.00461 20.0818Z" fill="#0D487A"/>
<path d="M19.8501 38.8721H25.9505C27.1989 38.8721 27.8295 39.5156 27.6558 40.8026C27.5037 42.052 27.0444 43.2443 26.319 44.2729C25.5936 45.3015 24.6246 46.1343 23.4988 46.697C23.2669 46.784 23.0679 46.941 22.9295 47.1463C22.7911 47.3516 22.7202 47.5949 22.7266 47.8425C22.6824 48.5188 22.3993 49.1574 21.9278 49.6442C21.4563 50.131 20.8271 50.4344 20.1526 50.5001C19.4445 50.5968 18.7255 50.43 18.1323 50.0314C17.5392 49.6327 17.1131 49.0301 16.9351 48.338C16.8979 48.2459 16.8783 48.1477 16.8772 48.0484C16.9801 47.2826 16.5747 46.9416 15.9312 46.5941C14.8786 46.0409 13.9712 45.2475 13.2825 44.2782C12.5938 43.3089 12.1432 42.1909 11.9672 41.0149C11.7163 39.6314 12.3533 38.8914 13.7562 38.8914L19.8501 38.8721ZM13.5116 40.4486C13.5696 43.3894 16.5425 46.0407 19.7729 46.0535C23.0033 46.0664 26.0149 43.4152 26.0921 40.4486H13.5116ZM18.428 47.6044C18.4193 47.786 18.4493 47.9675 18.5159 48.1367C18.5825 48.306 18.6842 48.4592 18.8143 48.5863C18.9444 48.7134 19.1 48.8114 19.2708 48.874C19.4416 48.9366 19.6237 48.9622 19.8051 48.9493C19.9844 48.9536 20.1627 48.922 20.3296 48.8563C20.4965 48.7906 20.6486 48.6922 20.7769 48.5669C20.9053 48.4416 21.0072 48.2919 21.0768 48.1266C21.1464 47.9613 21.1822 47.7837 21.1822 47.6044H18.428Z" fill="#0D487A"/>
<path d="M22.3791 28.3314H17.2954V36.1821C17.3148 36.3489 17.3148 36.5173 17.2954 36.6841C17.2684 36.8608 17.1761 37.021 17.0367 37.133C16.8973 37.245 16.721 37.3007 16.5425 37.2889C16.3589 37.2997 16.1783 37.2386 16.0389 37.1184C15.8996 36.9983 15.8125 36.8287 15.7961 36.6454C15.7799 36.5108 15.7799 36.3747 15.7961 36.24C15.7961 33.3572 15.7961 30.4485 15.7961 27.585C15.8013 27.4012 15.8475 27.2209 15.9312 27.0573C16.9651 25.0067 18.0033 22.9582 19.0457 20.9119C19.2259 20.5451 19.4318 20.2297 19.8887 20.2362C20.3456 20.2426 20.5322 20.5515 20.6931 20.8797C21.7549 22.9389 22.8295 24.9852 23.9106 27.0444C23.9921 27.2264 24.0317 27.4243 24.0264 27.6236C24.0264 30.5065 24.0007 33.3936 23.9492 36.2851C23.9492 36.9286 23.6661 37.2503 23.177 37.2503C22.688 37.2503 22.3984 36.9028 22.4048 36.2851C22.4048 33.814 22.437 31.3494 22.4563 28.8784L22.3791 28.3314ZM21.8707 26.7034L19.8051 22.7587L17.8167 26.7034H21.8707Z" fill="#0D487A"/>
<path d="M20.0238 10.9764C18.8045 10.943 17.5906 11.1509 16.4519 11.588C15.3131 12.0252 14.272 12.683 13.3882 13.5237C12.5044 14.3644 11.7955 15.3715 11.302 16.487C10.8086 17.6025 10.5404 18.8045 10.5129 20.024C10.5129 20.6675 10.2619 20.9699 9.81792 21.0343C9.37391 21.0986 8.91059 20.6997 8.93633 20.0755C8.97088 18.5736 9.31623 17.0951 9.95062 15.7333C10.585 14.3715 11.4946 13.1559 12.6222 12.1632C13.7498 11.1705 15.0708 10.4221 16.502 9.96533C17.9331 9.50855 19.4434 9.35324 20.9376 9.5092C21.0434 9.50561 21.1487 9.5238 21.2472 9.56263C21.3456 9.60146 21.435 9.66011 21.5098 9.73493C21.5847 9.80975 21.6433 9.89916 21.6821 9.99759C21.721 10.096 21.7391 10.2014 21.7356 10.3071C21.7356 10.7769 21.3688 11.0407 20.8218 11.0214L20.0238 10.9764Z" fill="#0D487A"/>
<path d="M20.5902 2.43058C20.5902 2.81668 20.5902 3.20278 20.5902 3.58888C20.6 3.69751 20.5872 3.80701 20.5523 3.91039C20.5175 4.01378 20.4616 4.10877 20.388 4.18931C20.3144 4.26986 20.2249 4.33419 20.1251 4.37821C20.0253 4.42222 19.9174 4.44495 19.8083 4.44495C19.6992 4.44495 19.5913 4.42222 19.4915 4.37821C19.3917 4.33419 19.3022 4.26986 19.2286 4.18931C19.1551 4.10877 19.0991 4.01378 19.0643 3.91039C19.0295 3.80701 19.0166 3.69751 19.0265 3.58888C19.0265 2.83598 19.0265 2.07665 19.0265 1.32376C19.0163 1.2169 19.0291 1.1091 19.064 1.00759C19.0989 0.906078 19.1551 0.813206 19.2288 0.735201C19.3026 0.657195 19.3921 0.595859 19.4915 0.555306C19.5909 0.514754 19.6978 0.495923 19.8051 0.500075C19.9107 0.498949 20.0154 0.51967 20.1125 0.560938C20.2097 0.602205 20.2973 0.663127 20.3699 0.739876C20.4424 0.816625 20.4982 0.907542 20.5339 1.00692C20.5696 1.10629 20.5844 1.21197 20.5773 1.31732C20.603 1.68412 20.5902 2.05735 20.5902 2.43058Z" fill="#0D487A"/>
<path d="M4.30958 23.9686C4.31232 24.1394 4.25431 24.3057 4.14587 24.4377C4.03744 24.5697 3.88565 24.6589 3.71756 24.6894C2.95823 24.8824 2.19246 25.0755 1.4267 25.2363C1.32719 25.265 1.22275 25.2722 1.12025 25.2576C1.01775 25.243 0.9195 25.2068 0.831971 25.1515C0.744442 25.0962 0.669614 25.023 0.612407 24.9367C0.5552 24.8503 0.516911 24.7529 0.500058 24.6508C0.471024 24.5574 0.461654 24.459 0.472538 24.3618C0.483422 24.2646 0.514325 24.1707 0.563298 24.0861C0.612271 24.0015 0.678251 23.9279 0.757077 23.87C0.835904 23.8121 0.925867 23.7712 1.02129 23.7499C1.79349 23.5311 2.57213 23.3444 3.3572 23.1836C3.47392 23.1511 3.59675 23.1473 3.71526 23.1724C3.83377 23.1975 3.94447 23.2509 4.03796 23.3279C4.13144 23.405 4.20495 23.5035 4.25223 23.615C4.29952 23.7266 4.31919 23.8479 4.30958 23.9686Z" fill="#0D487A"/>
<path d="M39.1101 24.3095C39.1101 24.953 38.679 25.352 38.1899 25.2555C37.4049 25.0881 36.6198 24.9015 35.8476 24.6892C35.7527 24.6675 35.6631 24.6268 35.5844 24.5695C35.5056 24.5123 35.4393 24.4397 35.3894 24.3561C35.3395 24.2725 35.307 24.1796 35.294 24.0832C35.2809 23.9867 35.2876 23.8886 35.3135 23.7947C35.3256 23.6983 35.3576 23.6054 35.4075 23.522C35.4574 23.4385 35.5241 23.3664 35.6034 23.3101C35.6827 23.2539 35.7728 23.2147 35.868 23.1951C35.9632 23.1755 36.0614 23.1759 36.1565 23.1962C36.9776 23.3487 37.7896 23.5463 38.5889 23.7883C38.8334 23.8526 39.0007 24.1872 39.1101 24.3095Z" fill="#0D487A"/>
<path d="M7.6301 30.6288C7.50514 30.8598 7.35399 31.0758 7.17965 31.2723C6.63268 31.7613 6.05996 32.2246 5.48081 32.6815C5.40923 32.7588 5.32237 32.8202 5.22574 32.8621C5.12912 32.904 5.02485 32.9253 4.91955 32.9247C4.81425 32.9241 4.71023 32.9016 4.61409 32.8586C4.51796 32.8156 4.43181 32.7531 4.36112 32.6751C4.29089 32.5918 4.23861 32.4949 4.20754 32.3905C4.17648 32.2861 4.1673 32.1764 4.18059 32.0683C4.19388 31.9601 4.22935 31.8559 4.28477 31.7621C4.3402 31.6684 4.41438 31.587 4.50269 31.5232C5.06253 31.0213 5.64812 30.5258 6.22084 30.1011C6.35068 30.025 6.49438 29.9756 6.64354 29.9557C6.7927 29.9358 6.94433 29.9459 7.08956 29.9853C7.30192 30.0625 7.43705 30.3842 7.6301 30.6288Z" fill="#0D487A"/>
<path d="M32.7909 29.7986C33.0142 29.8794 33.2297 29.9806 33.4344 30.101C34.0007 30.5515 34.5541 31.0084 35.1075 31.4717C35.1982 31.5327 35.2755 31.6116 35.3347 31.7034C35.3939 31.7953 35.4337 31.8983 35.4518 32.0061C35.4698 32.1139 35.4657 32.2242 35.4397 32.3304C35.4137 32.4366 35.3664 32.5363 35.3005 32.6236C35.2295 32.7123 35.1402 32.7847 35.0387 32.8358C34.9373 32.8869 34.826 32.9156 34.7124 32.9199C34.5988 32.9241 34.4857 32.9039 34.3806 32.8606C34.2756 32.8172 34.1811 32.7517 34.1036 32.6686C33.5309 32.2053 32.9646 31.7355 32.3984 31.2593C32.2584 31.1614 32.1599 31.015 32.1218 30.8486C32.0838 30.6821 32.1089 30.5074 32.1924 30.3584C32.3602 30.1406 32.5624 29.9515 32.7909 29.7986Z" fill="#0D487A"/>
<path d="M11.7549 2.35986C11.9716 2.49047 12.1598 2.66336 12.3083 2.86823C12.6494 3.51173 12.9518 4.20028 13.2156 4.88239C13.268 4.97832 13.2994 5.08427 13.3078 5.19323C13.3161 5.3022 13.3013 5.4117 13.2642 5.5145C13.227 5.61729 13.1685 5.71104 13.0925 5.78955C13.0165 5.86805 12.9247 5.92953 12.8231 5.9699C12.7266 6.01293 12.622 6.03516 12.5163 6.03512C12.4106 6.03508 12.3061 6.01279 12.2096 5.96969C12.1131 5.9266 12.0267 5.86366 11.9561 5.78497C11.8856 5.70629 11.8323 5.61363 11.7999 5.51302C11.4846 4.86952 11.1564 4.17454 10.9055 3.49242C10.6738 2.92614 11.0084 2.3856 11.7549 2.35986Z" fill="#0D487A"/>
<path d="M27.2117 6.03415C26.5682 6.03415 26.1564 5.55152 26.3366 5.07533C26.6373 4.27658 26.981 3.49466 27.3662 2.73299C27.4061 2.64732 27.4635 2.5709 27.5346 2.50858C27.6057 2.44626 27.6889 2.39939 27.7791 2.37095C27.8692 2.34251 27.9643 2.33313 28.0583 2.34338C28.1523 2.35364 28.2431 2.38332 28.325 2.43054C28.4141 2.45977 28.4962 2.50705 28.5662 2.56943C28.6361 2.63181 28.6925 2.70795 28.7318 2.79309C28.771 2.87823 28.7923 2.97055 28.7943 3.06429C28.7963 3.15802 28.7789 3.25116 28.7433 3.33788C28.4359 4.13482 28.0858 4.91459 27.6943 5.67379C27.5978 5.87327 27.3147 5.96336 27.2117 6.03415Z" fill="#0D487A"/>
<path d="M3.3186 17.3468C2.62362 17.1666 1.78707 16.9865 0.976261 16.7419C0.886447 16.7152 0.803093 16.6703 0.731397 16.61C0.6597 16.5497 0.601198 16.4753 0.559539 16.3913C0.51788 16.3074 0.493956 16.2158 0.489261 16.1222C0.484565 16.0287 0.499197 15.9351 0.532246 15.8475C0.551937 15.7537 0.590275 15.6649 0.644981 15.5863C0.699688 15.5077 0.769644 15.4409 0.85069 15.3899C0.931736 15.3388 1.02222 15.3046 1.11675 15.2893C1.21128 15.2739 1.30794 15.2777 1.40097 15.3005C2.18604 15.4614 2.97111 15.648 3.74331 15.8539C3.83913 15.8733 3.92994 15.9123 4.01011 15.9682C4.09027 16.0242 4.15809 16.096 4.20937 16.1793C4.26065 16.2625 4.29429 16.3554 4.30821 16.4522C4.32213 16.549 4.31603 16.6476 4.29029 16.7419C4.23237 17.128 3.89775 17.3726 3.3186 17.3468Z" fill="#0D487A"/>
<path d="M36.2208 17.3597C35.6802 17.3597 35.3971 17.1602 35.3134 16.7162C35.2861 16.6267 35.2772 16.5325 35.2872 16.4394C35.2971 16.3463 35.3258 16.2562 35.3715 16.1744C35.4172 16.0927 35.4789 16.021 35.553 15.9637C35.627 15.9065 35.7119 15.8647 35.8025 15.8411C36.6069 15.6094 37.4241 15.4163 38.2414 15.2555C38.3328 15.235 38.4275 15.2333 38.5197 15.2507C38.6118 15.2681 38.6994 15.304 38.7771 15.3565C38.8548 15.4089 38.921 15.4766 38.9716 15.5555C39.0223 15.6344 39.0562 15.7228 39.0715 15.8153C39.1112 15.9019 39.1311 15.9963 39.1299 16.0915C39.1287 16.1868 39.1064 16.2806 39.0645 16.3662C39.0227 16.4518 38.9623 16.527 38.8878 16.5864C38.8134 16.6458 38.7266 16.688 38.6339 16.7098C37.8231 16.9929 36.9544 17.1731 36.2208 17.3597Z" fill="#0D487A"/>
<path d="M4.84371 7.57861C5.03624 7.63496 5.22187 7.71266 5.39712 7.81027C6.04062 8.27359 6.62621 8.74335 7.22466 9.23241C7.30531 9.29308 7.37305 9.36922 7.42393 9.45638C7.47481 9.54354 7.50781 9.63996 7.52099 9.74002C7.53417 9.84008 7.52727 9.94176 7.5007 10.0391C7.47413 10.1365 7.42841 10.2276 7.36623 10.3071C7.30328 10.3919 7.22359 10.4629 7.13209 10.5157C7.04059 10.5685 6.93923 10.602 6.83428 10.6141C6.72933 10.6261 6.62301 10.6165 6.52192 10.5859C6.42083 10.5552 6.3271 10.5041 6.24654 10.4358C5.64165 9.98531 5.05606 9.51555 4.47048 9.04579C4.32612 8.95181 4.22267 8.8067 4.18089 8.63959C4.13911 8.47248 4.16211 8.29575 4.24525 8.14489C4.41724 7.92904 4.61869 7.73842 4.84371 7.57861Z" fill="#0D487A"/>
<path d="M35.5451 8.43451C35.415 8.68056 35.255 8.90965 35.0689 9.11662C34.5348 9.5735 33.9685 9.99821 33.4087 10.4036C33.3306 10.4831 33.2365 10.545 33.1326 10.5853C33.0287 10.6255 32.9175 10.6432 32.8062 10.6372C32.695 10.6312 32.5863 10.6015 32.4874 10.5502C32.3885 10.4989 32.3016 10.4272 32.2326 10.3398C32.1636 10.2523 32.1139 10.1512 32.087 10.0431C32.0601 9.93497 32.0565 9.82237 32.0764 9.71276C32.0963 9.60316 32.1394 9.49905 32.2027 9.40736C32.2659 9.31566 32.348 9.23849 32.4434 9.18097C33.0048 8.70391 33.5912 8.25712 34.2002 7.84249C34.3267 7.77829 34.4651 7.74062 34.6067 7.73177C34.7483 7.72291 34.8903 7.74307 35.0239 7.79101C35.2491 7.8811 35.352 8.17711 35.5451 8.43451Z" fill="#0D487A"/>
</g>
<defs>
<clipPath id="clip0_1651_967">
<rect width="38.61" height="50" fill="white" transform="translate(0.5 0.5)"/>
</clipPath>
</defs>
</svg>
