<svg width="40" height="51" viewBox="0 0 40 51" fill="none" xmlns="http://www.w3.org/2000/svg">
<g clip-path="url(#clip0_1651_942)">
<path d="M32.5973 39.8529C34.4119 39.8529 36.1719 39.8529 37.9209 39.8529C38.2962 39.852 38.6679 39.9263 39.014 40.0715C39.2771 40.2002 39.4962 40.4038 39.644 40.6566C39.7918 40.9094 39.8617 41.2002 39.8448 41.4926C39.8448 41.9845 39.8448 42.4764 39.8448 42.9792C39.8684 43.2181 39.8388 43.4593 39.7584 43.6854C39.6778 43.9116 39.5484 44.1171 39.3791 44.2874C39.2099 44.4576 39.0052 44.5884 38.7795 44.6703C38.5539 44.7522 38.3129 44.7832 38.0739 44.7611H37.418C37.418 44.9797 37.418 45.1655 37.418 45.3404C37.418 46.4336 37.418 47.6251 37.418 48.7729C37.4434 49.0039 37.4158 49.2378 37.3373 49.4566C37.2588 49.6754 37.1314 49.8735 36.965 50.0357C36.7985 50.198 36.5972 50.3202 36.3765 50.3931C36.1557 50.4659 35.9212 50.4876 35.6909 50.4563H4.19766C3.96279 50.4886 3.72365 50.4662 3.49883 50.391C3.27401 50.3158 3.06957 50.1897 2.9014 50.0226C2.73324 49.8555 2.60589 49.6519 2.52926 49.4275C2.45263 49.2032 2.42878 48.9642 2.45957 48.7291V44.8048H1.68345C1.4596 44.8191 1.23528 44.7857 1.02529 44.7068C0.815308 44.628 0.624449 44.5055 0.46533 44.3474C0.306211 44.1893 0.182455 43.9993 0.102243 43.7898C0.0220309 43.5803 -0.0128112 43.3562 1.95093e-05 43.1323C1.95093e-05 42.6513 1.95093e-05 42.1813 1.95093e-05 41.7003C-0.0355519 41.4523 -0.0134275 41.1994 0.0646714 40.9613C0.14277 40.7233 0.274738 40.5064 0.450309 40.3277C0.625881 40.1489 0.840321 40.0131 1.07695 39.9308C1.31358 39.8484 1.56602 39.8218 1.81462 39.8529H7.2803C7.21471 38.6067 7.13819 37.4152 7.08353 36.2346C6.95448 34.6202 6.90705 33.0003 6.94143 31.3811C7.08333 29.7754 7.81152 28.2783 8.98702 27.1754C10.1625 26.0725 11.703 25.441 13.3144 25.4016C14.1889 25.4016 15.0525 25.4016 15.927 25.4016C16.5282 25.4016 16.6266 25.2814 16.6594 24.6911C16.6885 24.4763 16.6532 24.2577 16.5578 24.0631C16.4624 23.8684 16.3114 23.7065 16.1238 23.598C14.9249 22.8332 14.0316 21.673 13.5986 20.3186C13.5688 20.1896 13.4988 20.0734 13.3985 19.9869C13.2983 19.9004 13.1731 19.8481 13.0411 19.8376C12.4571 19.7543 11.9098 19.5034 11.4655 19.1154C11.0212 18.7273 10.699 18.2188 10.5378 17.6513C10.3372 17.0837 10.309 16.4694 10.4569 15.8859C10.6047 15.3023 10.9219 14.7755 11.3686 14.3719C11.4735 14.2766 11.5532 14.1569 11.6009 14.0235C11.6485 13.89 11.6626 13.7469 11.6419 13.6067C11.5018 12.1732 11.7423 10.728 12.3392 9.41715C12.9361 8.10627 13.8682 6.97606 15.0416 6.14059C15.1734 6.04518 15.2666 5.90549 15.3039 5.74706C15.195 4.86852 15.3436 3.97726 15.7318 3.18161C16.1199 2.38595 16.7308 1.72018 17.4902 1.26521C18.2166 0.769384 19.0757 0.50415 19.9552 0.50415C20.8347 0.50415 21.6938 0.769384 22.4202 1.26521C23.1862 1.72146 23.8016 2.39233 24.1902 3.19477C24.5788 3.99721 24.7235 4.89599 24.6065 5.77986C24.608 5.87233 24.6282 5.96355 24.6657 6.04806C24.7033 6.13257 24.7575 6.20866 24.8251 6.27177C26.004 7.11539 26.94 8.25466 27.5387 9.57491C28.1374 10.8952 28.3778 12.3498 28.2357 13.7925C28.2349 14.0329 28.3202 14.2656 28.4762 14.4484C28.9132 14.8588 29.2244 15.3851 29.3734 15.9658C29.5225 16.5465 29.5032 17.1577 29.3179 17.7278C29.1593 18.2966 28.8378 18.8067 28.393 19.1951C27.9483 19.5836 27.3996 19.8335 26.8146 19.9141C26.6907 19.9214 26.5722 19.9676 26.4761 20.0461C26.3799 20.1246 26.311 20.2314 26.279 20.3513C25.7964 21.7885 24.8205 23.0084 23.5243 23.7947C22.9777 24.1336 23.2291 24.6146 23.251 25.03C23.2729 25.4454 23.6555 25.4016 23.9725 25.4235C25.2807 25.3918 26.5893 25.4649 27.8859 25.6421C29.4368 26.0042 30.8053 26.9129 31.7408 28.2017C32.6763 29.4906 33.1162 31.0733 32.9799 32.66C32.8269 34.8463 32.7285 37.12 32.6192 39.35C32.5973 39.514 32.5973 39.667 32.5973 39.8529ZM20.7696 30.8892V32.343C20.7696 33.7641 20.7696 35.1743 20.7696 36.5844C20.7772 36.6918 20.7624 36.7995 20.7261 36.9008C20.6898 37.0022 20.6328 37.0948 20.5588 37.1729C20.4848 37.2511 20.3954 37.313 20.2961 37.3547C20.1969 37.3964 20.0901 37.417 19.9825 37.4152C19.8768 37.4196 19.7713 37.4029 19.6721 37.3661C19.5729 37.3294 19.482 37.2732 19.4047 37.201C19.3274 37.1288 19.2652 37.0419 19.2218 36.9454C19.1784 36.849 19.1546 36.7448 19.1517 36.6391C19.1409 36.468 19.1409 36.2964 19.1517 36.1253V30.9001L18.5833 30.758C17.835 30.6012 17.1338 30.2713 16.5359 29.7949C15.938 29.3184 15.4599 28.7086 15.1399 28.0142C14.7683 27.1288 14.2764 27.0195 13.4565 27.0523C12.7822 27.0706 12.1183 27.2224 11.503 27.4988C10.8877 27.7752 10.3333 28.1709 9.87188 28.6628C9.41041 29.1548 9.05102 29.7333 8.81446 30.365C8.5779 30.9967 8.46887 31.669 8.49368 32.343C8.5702 34.1795 8.67951 36.016 8.77789 37.8087C8.77789 38.4755 8.86534 39.1314 8.90907 39.8201H11.4233C11.4008 39.54 11.4008 39.2585 11.4233 38.9784C11.444 38.9119 11.4824 38.8524 11.5344 38.8062C11.5864 38.7599 11.65 38.7288 11.7184 38.716C11.8168 38.716 11.9698 38.8909 11.9917 39.0002C12.0271 39.283 12.0381 39.5682 12.0245 39.8529H27.8094C27.7812 39.5876 27.7812 39.3201 27.8094 39.0549C27.8094 38.9346 28.0171 38.8472 28.1264 38.7379C28.2138 38.8472 28.3669 38.9456 28.3778 39.0658C28.4138 39.3265 28.4284 39.5898 28.4215 39.8529H30.892C30.8993 39.7802 30.8993 39.7069 30.892 39.6343C31.0232 37.1528 31.22 34.6605 31.2637 32.1791C31.2603 31.3455 31.0579 30.5247 30.6734 29.7851C30.1793 28.8216 29.3927 28.0392 28.4266 27.5503C27.4604 27.0613 26.3642 26.8908 25.2952 27.0632C25.2335 27.0736 25.1754 27.099 25.1259 27.1372C25.0763 27.1753 25.0369 27.2249 25.0109 27.2818C24.6822 28.2021 24.1173 29.0198 23.3729 29.6529C22.6284 30.286 21.7307 30.7124 20.7696 30.8892ZM4.12114 48.8384H35.7018V44.8376H4.12114V48.8384ZM13.2597 12.9945V13.5083C13.2597 14.4812 13.5549 14.6998 14.5169 14.6998C17.0114 14.7294 19.4783 14.1754 21.7206 13.082C22.4421 12.7213 22.6279 12.765 23.1854 13.3334C23.5269 13.6938 23.9367 13.9828 24.3908 14.1836C24.8449 14.3844 25.3344 14.493 25.8308 14.5031C26.2899 14.5031 26.5085 14.2954 26.5741 13.8472C26.6863 12.9492 26.616 12.0377 26.3674 11.1675C26.1189 10.2973 25.6971 9.48621 25.1276 8.78291C24.558 8.07961 23.8522 7.49855 23.0527 7.07456C22.2531 6.65058 21.3762 6.3924 20.4744 6.31549C19.5523 6.2363 18.6238 6.35059 17.7483 6.65103C16.8729 6.95147 16.0699 7.43144 15.3907 8.06021C14.7115 8.68897 14.1711 9.45266 13.8042 10.3024C13.4372 11.1521 13.2518 12.069 13.2597 12.9945ZM14.495 16.427C14.6262 17.2687 14.7573 18.1432 14.8994 19.0177C15.0911 20.055 15.5987 21.0076 16.3528 21.7452C17.1068 22.4828 18.0705 22.9693 19.1117 23.1381C20.1529 23.3068 21.2209 23.1496 22.1693 22.6879C23.1177 22.2262 23.9002 21.4827 24.4097 20.559C25.1531 19.1817 25.0984 17.6404 25.3935 16.1865C24.3319 16.0595 23.3277 15.6351 22.4967 14.9622C22.4076 14.8777 22.294 14.8236 22.1721 14.8079C22.0503 14.7922 21.9266 14.8156 21.819 14.8747C20.4963 15.3011 19.1736 15.7602 17.8181 16.0663C16.7175 16.2449 15.6083 16.3653 14.495 16.427ZM38.1832 41.5691H1.67252V43.1323H38.1832V41.5691ZM16.5173 27.0523C16.8038 27.7208 17.2802 28.2905 17.8875 28.6909C18.4947 29.0912 19.206 29.3046 19.9333 29.3046C20.6607 29.3046 21.372 29.0912 21.9792 28.6909C22.5864 28.2905 23.0628 27.7208 23.3494 27.0523C22.8086 26.9584 22.3229 26.6646 21.9888 26.2292C21.6546 25.7938 21.4965 25.2487 21.5457 24.702C20.9991 24.7567 20.4526 24.8332 19.9607 24.8332C19.4688 24.8332 18.8675 24.7567 18.31 24.713C18.3567 25.2562 18.1988 25.7973 17.8671 26.2301C17.5354 26.6629 17.054 26.9561 16.5173 27.0523ZM16.8999 5.18957C18.8416 4.44071 20.9923 4.44071 22.934 5.18957C22.9342 4.40827 22.6292 3.65781 22.0839 3.09825C21.5387 2.53869 20.7964 2.21434 20.0153 2.19438C19.6104 2.18268 19.2072 2.25235 18.8297 2.39927C18.4522 2.5462 18.108 2.76738 17.8175 3.04973C17.527 3.33208 17.2961 3.66985 17.1384 4.04304C16.9808 4.41623 16.8997 4.81725 16.8999 5.22236V5.18957ZM27.3284 15.6946C26.917 16.4577 26.7312 17.3222 26.7928 18.1869C27.0335 18.1015 27.2485 17.9559 27.4171 17.7639C27.5857 17.5719 27.7024 17.34 27.7561 17.0902C27.8098 16.8404 27.7987 16.5811 27.7238 16.3368C27.6489 16.0925 27.5128 15.8714 27.3284 15.6946ZM13.1176 18.2525C12.8662 17.3562 13.0302 16.4598 12.5055 15.6618C12.3104 15.8474 12.1673 16.0809 12.0906 16.339C12.0138 16.5971 12.006 16.8708 12.0679 17.1329C12.1298 17.3949 12.2593 17.6362 12.4435 17.8327C12.6277 18.0291 12.8601 18.1739 13.1176 18.2525Z" fill="#0D487A"/>
</g>
<defs>
<clipPath id="clip0_1651_942">
<rect width="39.8448" height="50" fill="white" transform="translate(0 0.5)"/>
</clipPath>
</defs>
</svg>
