<svg width="41" height="51" viewBox="0 0 41 51" fill="none" xmlns="http://www.w3.org/2000/svg">
<g clip-path="url(#clip0_1651_954)">
<path d="M3.12501 50.4999L2.76251 50.3749C2.17531 50.2117 1.6511 49.875 1.25853 49.4088C0.865968 48.9427 0.623366 48.3688 0.562508 47.7624C0.497899 47.1626 0.477011 46.5589 0.500008 45.9561C0.491076 45.8513 0.505474 45.7458 0.542167 45.6472C0.57886 45.5486 0.636938 45.4593 0.712229 45.3858C0.787519 45.3123 0.878153 45.2564 0.97762 45.2221C1.07709 45.1878 1.18292 45.1759 1.28751 45.1874C1.71251 45.1874 1.96251 45.4811 1.97501 45.9811C1.98751 46.4811 1.97501 46.8624 1.97501 47.2999C1.96469 47.5343 2.0041 47.7682 2.09065 47.9863C2.17721 48.2044 2.30894 48.4017 2.47719 48.5652C2.64544 48.7287 2.84639 48.8548 3.06684 48.9351C3.2873 49.0154 3.52225 49.0481 3.75626 49.0311H6.88126V47.4624C6.88126 46.9686 6.88126 46.4811 6.88126 45.9936C6.88126 45.5061 7.18751 45.1311 7.61876 45.1311C8.05001 45.1311 8.34376 45.4624 8.34376 45.9874C8.34376 46.9811 8.34376 47.9749 8.34376 48.9999H32.375V46.5436C32.375 46.3686 32.375 46.1874 32.375 46.0061C32.375 45.4686 32.6563 45.1374 33.0875 45.1311C33.5188 45.1249 33.8375 45.4624 33.8438 46.0249C33.8438 46.8249 33.8438 47.6249 33.8438 48.4249V49.0499H36.9688C37.191 49.0673 37.4145 49.0382 37.6249 48.9645C37.8353 48.8908 38.028 48.7741 38.1909 48.6218C38.3537 48.4695 38.4831 48.285 38.5708 48.08C38.6584 47.8751 38.7024 47.6541 38.7 47.4311C38.7 44.8874 38.775 42.3374 38.6563 39.7999C38.5812 38.5917 38.1316 37.4369 37.3699 36.496C36.6082 35.5551 35.5724 34.8749 34.4063 34.5499C33.6125 34.3061 32.8188 34.0624 32.0125 33.8561C31.7842 33.806 31.5455 33.837 31.3375 33.9436C27.95 35.9395 24.5563 37.9582 21.1563 39.9999C20.9277 40.1642 20.6534 40.2526 20.3719 40.2526C20.0904 40.2526 19.8161 40.1642 19.5875 39.9999C16.225 37.9686 12.8375 35.9749 9.46251 33.9561C9.34079 33.8747 9.2023 33.8218 9.05731 33.8012C8.91232 33.7807 8.76456 33.793 8.62501 33.8374C7.90001 34.0811 7.15626 34.2749 6.42501 34.4999C5.13934 34.8568 4.00852 35.6304 3.20993 36.6993C2.41135 37.7683 1.99018 39.072 2.01251 40.4061C2.01251 41.0936 2.01251 41.7749 2.01251 42.4624C2.01756 42.5564 2.00361 42.6504 1.97149 42.7389C1.93936 42.8274 1.88973 42.9085 1.82555 42.9773C1.76136 43.0461 1.68396 43.1013 1.59796 43.1396C1.51195 43.1778 1.41912 43.1983 1.32501 43.1999C1.23033 43.2076 1.13508 43.1958 1.04515 43.1652C0.955226 43.1346 0.872544 43.0858 0.802229 43.022C0.731915 42.9581 0.675466 42.8805 0.63638 42.7939C0.597295 42.7073 0.576406 42.6136 0.575008 42.5186C0.575008 40.9561 0.418758 39.3936 0.968758 37.8624C1.35931 36.7047 2.02977 35.6613 2.92057 34.825C3.81137 33.9887 4.89494 33.3854 6.07501 33.0686C6.70001 32.8936 7.28126 32.7624 7.85626 32.5436C8.50938 32.3243 9.1378 32.0374 9.73126 31.6874C11.4875 30.5874 13.2125 29.4374 14.9438 28.3061C15.0592 28.2298 15.1554 28.1276 15.2246 28.0078C15.2939 27.8879 15.3343 27.7536 15.3428 27.6155C15.3513 27.4773 15.3276 27.339 15.2735 27.2116C15.2194 27.0842 15.1365 26.9711 15.0313 26.8811C13.3676 25.5251 12.2799 23.5887 11.9875 21.4624C11.9656 21.377 11.9259 21.2972 11.8709 21.2283C11.816 21.1594 11.7471 21.1028 11.6688 21.0624C11.2531 20.9276 10.8938 20.6588 10.6473 20.298C10.4007 19.9372 10.2808 19.5049 10.3063 19.0686C10.3063 17.2686 10.3063 15.4749 10.3063 13.6811C10.257 13.423 10.1729 13.1728 10.0563 12.9374C9.90048 12.5876 9.78717 12.2204 9.71876 11.8436C9.66876 10.9936 9.71876 10.1436 9.71876 9.29989C9.71876 9.16239 9.58126 8.9374 9.48126 8.91864C8.37501 8.70614 7.26251 8.53114 6.11876 8.33739V11.7061C6.56073 11.9166 6.96425 12.1997 7.31251 12.5436C7.54997 12.9452 7.65902 13.4097 7.62501 13.8749C7.55626 15.8749 8.11251 17.7811 8.38751 19.7311C8.44376 20.1686 8.53751 20.5999 8.60626 21.0374C8.66796 21.2889 8.66935 21.5515 8.61032 21.8037C8.55129 22.0558 8.4335 22.2905 8.26656 22.4885C8.09962 22.6865 7.88825 22.8423 7.64969 22.9431C7.41112 23.0439 7.15211 23.0869 6.89376 23.0686C5.86251 23.0686 4.83751 23.0686 3.80626 23.0686C3.54339 23.087 3.27996 23.0421 3.03801 22.9377C2.79606 22.8333 2.58262 22.6725 2.41556 22.4687C2.2485 22.265 2.13268 22.0241 2.07778 21.7664C2.02288 21.5087 2.0305 21.2416 2.10001 20.9874C2.40626 19.2061 2.72501 17.4249 3.00626 15.6374C3.06476 14.987 3.07938 14.3335 3.05001 13.6811C3.02103 13.4569 3.03953 13.2291 3.10433 13.0124C3.16912 12.7958 3.27875 12.5952 3.4261 12.4237C3.57344 12.2522 3.75522 12.1136 3.95961 12.0169C4.16401 11.9202 4.38645 11.8675 4.61251 11.8624C4.61251 10.6124 4.61251 9.36239 4.61251 8.0624C4.59116 7.93742 4.53231 7.82189 4.44376 7.73114C4.25296 7.53992 4.11499 7.30251 4.04332 7.04206C3.97165 6.78161 3.96872 6.50703 4.03483 6.24511C4.10094 5.98319 4.23382 5.74289 4.42051 5.54765C4.6072 5.35241 4.84131 5.20891 5.10001 5.13114C9.60001 3.69364 14.1188 2.29989 18.625 0.806144C19.7708 0.396975 21.0229 0.396975 22.1688 0.806144C26.5813 2.28114 31.05 3.65614 35.5 5.08739C35.8255 5.1843 36.1262 5.35062 36.3813 5.57489C36.5871 5.76515 36.732 6.01213 36.7976 6.28465C36.8633 6.55717 36.8467 6.84303 36.75 7.10614C36.6783 7.38479 36.5253 7.6358 36.3105 7.82723C36.0957 8.01866 35.8288 8.14186 35.5438 8.18114C34.225 8.41864 32.9063 8.63739 31.5875 8.86864L31.1125 8.96239C31.1125 9.85614 31.1125 10.7374 31.1125 11.6124C31.1424 11.8813 31.1137 12.1534 31.0285 12.4102C30.9433 12.667 30.8035 12.9023 30.6188 13.0999C30.515 13.2539 30.4727 13.4412 30.5 13.6249C30.5 15.3874 30.5 17.1499 30.5 18.9124C30.5531 19.3873 30.4402 19.8658 30.1804 20.2669C29.9206 20.6679 29.5301 20.9667 29.075 21.1124C29.0086 21.146 28.951 21.1945 28.9065 21.2542C28.862 21.3138 28.832 21.3829 28.8188 21.4561C28.5274 23.6332 27.4082 25.6143 25.6938 26.9874C25.613 27.0784 25.5513 27.1847 25.5125 27.3C25.4737 27.4153 25.4585 27.5373 25.4678 27.6586C25.4772 27.7799 25.5108 27.8981 25.5668 28.0062C25.6228 28.1142 25.7 28.2098 25.7938 28.2874C27.7688 29.5811 29.7375 30.8999 31.7438 32.1499C32.2694 32.4079 32.826 32.5969 33.4 32.7124C34.7438 33.1124 36.1063 33.4561 37.2438 34.3499C38.1923 35.0655 38.9573 35.9963 39.4756 37.0656C39.994 38.1348 40.2508 39.3119 40.225 40.4999C40.225 42.7374 40.225 44.9749 40.225 47.2124C40.2701 47.9645 40.0419 48.7075 39.5826 49.3047C39.1232 49.9019 38.4635 50.3131 37.725 50.4624C37.6809 50.4805 37.6389 50.5035 37.6 50.5311L3.12501 50.4999ZM14.875 13.4936C14.875 13.9874 14.875 14.4874 14.875 14.9874C14.8668 15.5981 14.6193 16.1812 14.1857 16.6113C13.7521 17.0414 13.167 17.2842 12.5563 17.2874C12.2813 17.2874 12.0063 17.2874 11.6875 17.2874C11.6875 17.9686 11.6563 18.6061 11.6875 19.2311C11.6875 19.3874 11.975 19.6061 12.1688 19.6561C12.9188 19.8499 13.2 20.1374 13.275 20.9061C13.4239 22.6718 14.2305 24.3172 15.535 25.5163C16.8395 26.7154 18.5468 27.3809 20.3188 27.3809C22.0907 27.3809 23.798 26.7154 25.1025 25.5163C26.407 24.3172 27.2136 22.6718 27.3625 20.9061C27.4375 20.1124 27.7 19.8561 28.4813 19.6561C28.6688 19.6061 28.9375 19.3811 28.95 19.2186C29.0063 18.5936 28.95 17.9686 28.95 17.2936H28.2625C27.9287 17.3147 27.5943 17.2645 27.2814 17.1463C26.9686 17.0281 26.6844 16.8447 26.448 16.6082C26.2115 16.3717 26.028 16.0876 25.9099 15.7747C25.7917 15.4619 25.7414 15.1274 25.7625 14.7936V13.4936H14.875ZM11.125 11.9624H29.625V8.98739C29.1688 8.92489 28.7313 8.88114 28.3 8.79989C28.111 8.77254 27.9407 8.67125 27.8264 8.51829C27.7121 8.36533 27.6633 8.17324 27.6906 7.98427C27.718 7.7953 27.8193 7.62494 27.9722 7.51066C28.1252 7.39638 28.3173 7.34754 28.5063 7.37489C28.7625 7.37489 29.025 7.43739 29.2813 7.45614C29.7145 7.53054 30.1548 7.5557 30.5938 7.53114C31.9 7.34989 33.2 7.11239 34.5 6.90614C34.7813 6.85614 35.0625 6.78739 35.3438 6.72489C35.2533 6.60441 35.126 6.51665 34.9813 6.4749C30.2104 4.94573 25.4417 3.42698 20.675 1.91864C20.4484 1.85319 20.2079 1.85319 19.9813 1.91864C15.4563 3.36031 10.9354 4.80198 6.41876 6.24364C6.07501 6.34989 5.73126 6.47489 5.26251 6.63739C5.49376 6.71864 5.58751 6.77489 5.68751 6.79364C6.71876 6.96864 7.75001 7.14364 8.77501 7.30614C9.35861 7.4603 9.95894 7.54216 10.5625 7.54989C12.2188 7.40614 13.8625 7.16239 15.5125 6.92489C18.1063 6.58114 20.6938 6.21239 23.3063 6.68114C23.8688 6.7874 24.4438 6.81864 25.0063 6.89989C25.1035 6.90851 25.1981 6.9362 25.2847 6.98138C25.3712 7.02657 25.4481 7.08836 25.5107 7.16322C25.5734 7.23809 25.6207 7.32457 25.65 7.41772C25.6793 7.51088 25.6899 7.60888 25.6813 7.70614C25.6726 7.8034 25.645 7.89802 25.5998 7.98457C25.5546 8.07113 25.4928 8.14794 25.4179 8.21062C25.3431 8.2733 25.2566 8.32062 25.1634 8.34988C25.0703 8.37914 24.9723 8.38976 24.875 8.38114C24.7125 8.38114 24.5563 8.33739 24.3938 8.32489C22.8313 8.19989 21.2688 7.99364 19.7125 7.99364C18.4411 8.04753 17.1741 8.17902 15.9188 8.38739C14.3375 8.57489 12.75 8.78114 11.1438 9.01239L11.125 11.9624ZM24 27.9999C22.8654 28.5311 21.6278 28.8064 20.375 28.8064C19.1222 28.8064 17.8847 28.5311 16.75 27.9999C16.6829 29.3352 16.8285 30.6727 17.1813 31.9624C17.1813 32.0561 17.3938 32.1436 17.5188 32.1624C19.4158 32.5062 21.3592 32.5062 23.2563 32.1624C23.3291 32.1481 23.3976 32.1169 23.4562 32.0713C23.5148 32.0257 23.5619 31.967 23.5938 31.8999C23.9324 30.6292 24.0695 29.3131 24 27.9999ZM25.4438 29.7624C25.1905 32.4125 24.3192 34.9663 22.9 37.2186L30.2063 32.8436L25.4438 29.7624ZM15.2875 29.7624L10.5375 32.8874L17.8438 37.2249C16.4235 34.9789 15.5481 32.4319 15.2875 29.7874V29.7624ZM7.00001 21.5999C7.02702 21.5192 7.04177 21.4349 7.04376 21.3499C6.75001 19.7124 6.50001 18.0749 6.20626 16.4374C6.18087 16.3783 6.14139 16.3263 6.09127 16.286C6.04115 16.2457 5.98192 16.2183 5.91876 16.2061C5.38751 16.2061 4.85001 16.2061 4.30001 16.2061C4.00626 17.9186 3.71876 19.5874 3.43126 21.2499C3.37501 21.5561 3.53751 21.6124 3.79376 21.6124C4.37501 21.6124 4.96251 21.6124 5.55001 21.6124L7.00001 21.5999ZM22.9438 33.8374H17.7938C18.4188 35.4061 19.425 36.7561 20.3688 38.2124C21.3188 36.7499 22.375 35.3999 22.9438 33.8374ZM11.75 13.4874V15.8186C12.0625 15.8186 12.375 15.8186 12.6125 15.8186C12.8125 15.8241 13.007 15.7526 13.1559 15.6188C13.3047 15.4851 13.3966 15.2994 13.4125 15.0999C13.4563 14.5749 13.4125 14.0374 13.4125 13.4936L11.75 13.4874ZM29.0063 15.8124V13.4936H27.3188C27.3188 14.0311 27.3188 14.5499 27.3188 15.0624C27.3298 15.2614 27.4159 15.4489 27.5598 15.5869C27.7036 15.7249 27.8944 15.8033 28.0938 15.8061C28.3975 15.8274 28.7023 15.8295 29.0063 15.8124ZM6.03751 13.3999H4.43751V14.6999H6.03751V13.3999Z" fill="#0D487A"/>
</g>
<defs>
<clipPath id="clip0_1651_954">
<rect width="39.7313" height="50" fill="white" transform="translate(0.5 0.5)"/>
</clipPath>
</defs>
</svg>
